<svg width="35" height="35" viewBox="0 0 35 35" fill="none" xmlns="http://www.w3.org/2000/svg">
<path fill-rule="evenodd" clip-rule="evenodd" d="M33.8416 4.88315C33.5631 3.16005 32.5238 2.12247 30.8495 1.88568C30.8087 1.87593 26.7311 1.09375 20.3317 1.09375C13.9342 1.09375 9.85656 1.87593 9.82907 1.88214C8.51923 2.06837 7.6058 2.7397 7.13135 3.82606C9.87353 3.52291 12.6306 3.37398 15.3895 3.37998C21.5919 3.37998 25.7183 4.09299 26.324 4.20473C29.0545 4.61444 30.9532 6.5087 31.4126 9.28446C31.6112 10.189 32.2391 13.3692 32.2391 17.1657C32.2391 19.1983 32.0564 21.0633 31.8596 22.4884C32.9415 22.0308 33.6226 21.1138 33.8372 19.7889C33.8443 19.7561 34.6291 16.4065 34.6291 12.3263C34.6291 8.24688 33.8443 4.89734 33.8398 4.88226" fill="white"/>
<path fill-rule="evenodd" clip-rule="evenodd" d="M28.8992 9.72253C28.6208 7.99855 27.5805 6.96096 25.9071 6.72329C25.8663 6.71443 21.7887 5.93402 15.3902 5.93402C8.99269 5.93402 4.91419 6.71443 4.88758 6.72152C3.19996 6.96096 2.1606 7.99855 1.88657 9.70391C1.8777 9.73672 1.09375 13.0863 1.09375 17.1665C1.09375 21.2459 1.8777 24.5955 1.88214 24.6097C2.1606 26.3336 3.19996 27.3712 4.87428 27.6089C4.90709 27.6151 7.55249 28.1215 11.9095 28.3192L14.5061 32.8172C14.5956 32.9725 14.7245 33.1014 14.8797 33.1911C15.0349 33.2807 15.211 33.3279 15.3902 33.3279C15.5695 33.3279 15.7456 33.2807 15.9008 33.1911C16.056 33.1014 16.1848 32.9725 16.2744 32.8172L18.8719 28.3201C23.2289 28.1215 25.8716 27.616 25.8938 27.6107C27.5805 27.3712 28.6208 26.3336 28.8948 24.6283C28.9037 24.5955 29.6867 21.2459 29.6867 17.1665C29.6867 13.0863 28.9028 9.73672 28.8992 9.72253Z" fill="white"/>
</svg>
